<?xml version="1.0" standalone="no"?>
<!DOCTYPE svg PUBLIC "-//W3C//DTD SVG 20010904//EN"
 "http://www.w3.org/TR/2001/REC-SVG-20010904/DTD/svg10.dtd">
<svg version="1.0" xmlns="http://www.w3.org/2000/svg"
 width="1200.000000pt" height="1200.000000pt" viewBox="0 0 1200.000000 1200.000000"
 preserveAspectRatio="xMidYMid meet">
<metadata>
Created by potrace 1.11, written by Peter Selinger 2001-2013
</metadata>
<g transform="translate(0.000000,1200.000000) scale(0.100000,-0.100000)"
fill="#000000" stroke="none">
<path d="M7715 11735 c-781 -75 -1369 -340 -1841 -827 -484 -500 -781 -1179
-914 -2089 -61 -419 -84 -943 -60 -1364 10 -184 47 -650 56 -702 l5 -33 241 0
240 0 -5 28 c-15 67 -37 281 -47 437 -13 221 -13 801 0 997 74 1088 358 1869
875 2407 458 476 1057 701 1859 701 656 0 1197 -104 1643 -315 577 -273 963
-735 1186 -1420 132 -405 195 -799 217 -1359 18 -460 -18 -777 -137 -1186
-130 -453 -365 -910 -707 -1383 -298 -411 -645 -882 -985 -1337 -195 -261
-377 -513 -404 -560 -163 -280 -350 -700 -517 -1160 -232 -639 -449 -1135
-560 -1285 -243 -325 -529 -508 -922 -587 -153 -31 -496 -33 -597 -5 -369 104
-575 399 -671 955 -40 233 -51 661 -25 972 18 209 63 674 70 713 l5 27 -219 0
-218 0 -36 -202 c-74 -410 -95 -599 -104 -908 -21 -766 134 -1352 444 -1681
163 -172 363 -278 627 -331 155 -31 475 -31 683 1 516 78 912 289 1211 645
222 265 310 452 641 1351 243 661 353 905 528 1175 57 87 738 1009 1320 1785
375 500 488 679 648 1025 189 409 315 841 370 1270 58 461 37 1152 -51 1670
-200 1172 -745 1919 -1673 2294 -350 142 -738 228 -1236 277 -181 17 -778 20
-940 4z"/>
<path d="M7910 10683 c-25 -2 -94 -10 -155 -19 -764 -106 -1377 -628 -1625
-1384 -79 -240 -110 -435 -117 -740 -8 -324 12 -509 82 -786 157 -616 557
-1157 1166 -1577 l97 -67 137 157 137 157 -34 30 c-19 17 -87 78 -153 136
-353 313 -659 729 -805 1095 -37 92 -90 253 -90 272 0 16 153 -82 385 -248
969 -691 1422 -1343 1380 -1989 -22 -349 -130 -650 -361 -1005 -304 -468 -502
-790 -547 -890 -63 -139 -149 -359 -176 -450 -11 -39 -38 -99 -58 -133 -82
-135 -180 -203 -305 -210 -85 -5 -109 1 -152 39 -51 44 -70 110 -69 239 2 164
51 331 182 628 68 154 104 311 117 511 l7 111 -250 0 -251 0 5 -47 c2 -27 8
-71 14 -98 21 -96 -19 -264 -125 -524 -126 -307 -156 -458 -136 -672 14 -148
33 -225 80 -325 96 -200 282 -295 550 -281 226 12 409 107 553 288 85 106 294
487 406 740 48 109 124 239 371 635 316 504 346 556 407 699 210 488 251 963
117 1377 -150 465 -492 918 -1039 1377 -254 212 -676 508 -1029 722 -76 46
-141 90 -144 97 -7 19 16 241 35 332 90 449 327 825 690 1095 94 70 286 171
393 206 392 128 921 88 1316 -101 415 -199 774 -608 974 -1109 84 -211 147
-488 170 -749 18 -190 8 -513 -20 -666 -61 -340 -187 -715 -391 -1167 -46
-101 -78 -184 -73 -188 5 -4 100 -44 211 -88 145 -58 205 -78 211 -69 5 6 43
88 84 181 288 648 436 1137 470 1551 13 159 1 475 -27 689 -147 1127 -743
1887 -1670 2130 -285 75 -658 110 -945 88z"/>
<path d="M1493 10043 c-4 -10 -73 -188 -154 -396 l-147 -379 36 -15 c467 -195
840 -441 1173 -773 491 -490 815 -1094 953 -1773 94 -464 91 -983 -9 -1442
-226 -1041 -919 -1931 -1870 -2400 -93 -46 -204 -97 -245 -114 -50 -19 -75
-34 -74 -44 3 -36 290 -787 301 -787 25 0 304 124 467 208 1254 646 2129 1885
2320 3287 55 400 50 888 -14 1281 -226 1397 -1087 2573 -2345 3202 -146 72
-350 162 -371 162 -8 0 -18 -8 -21 -17z"/>
<path d="M522 8258 l-171 -382 117 -61 c606 -315 1024 -893 1117 -1546 19
-133 19 -404 0 -536 -94 -659 -513 -1237 -1126 -1552 -63 -32 -120 -60 -128
-62 -10 -4 30 -107 149 -384 89 -209 165 -383 169 -387 9 -10 267 120 391 196
740 454 1232 1180 1371 2026 27 160 37 534 20 707 -74 735 -448 1432 -1031
1920 -159 133 -365 270 -551 367 -80 42 -148 76 -151 76 -3 0 -82 -172 -176
-382z"/>
</g>
</svg>
